<svg height="512pt" viewBox="0 0 511 512" width="512pt" xmlns="http://www.w3.org/2000/svg"><path d="m485.472656 120 24.449219-36.679688c3.0625-4.601562 3.355469-10.519531.746094-15.394531-2.609375-4.878906-7.691407-7.925781-13.230469-7.925781h-91l-75 45v60c0 8.289062 6.710938 15 15 15h151c5.539062 0 10.621094-3.046875 13.230469-7.925781 2.605469-4.878907 2.3125-10.796875-.746094-15.394531zm0 0" fill="#ae2538"/><path d="m271.4375 90v135c0 8.398438-6.597656 15-15 15-8.398438 0-15-6.601562-15-15v-105zm0 0" fill="#7c8388"/><path d="m510.941406 503.597656c-2.402344 5.101563-7.800781 8.402344-13.5 8.402344h-482c-5.699218 0-11.101562-3.300781-13.5-8.402344-2.402344-5.398437-1.800781-11.398437 1.800782-15.898437l131.5-164.5 52.796874-24.597657h136.800782l52.800781 24.597657 131.5 164.5c3.601563 4.5 4.199219 10.5 1.800781 15.898437zm0 0" fill="#64e1dc"/><path d="m510.941406 503.597656c-2.402344 5.101563-7.800781 8.402344-13.5 8.402344h-241v-213.402344h68.398438l52.800781 24.601563 131.5 164.5c3.601563 4.5 4.199219 10.5 1.800781 15.898437zm0 0" fill="#00c8c8"/><path d="m377.640625 323.199219-52.800781 35.402343c-2.699219 1.5-5.402344 2.398438-8.398438 2.398438-3.902344 0-7.800781-1.5-10.5-4.5l-19.5-19.199219-19.503906 19.199219c-2.695312 3-6.597656 4.5-10.496094 4.5-3.902344 0-7.800781-1.5-10.5-4.5l-19.5-19.199219-19.503906 19.199219c-5.097656 5.097656-12.898438 6-18.898438 2.101562l-52.796874-35.402343 18.898437-23.398438 90.597656-114.101562c2.703125-3.597657 7.199219-5.398438 11.699219-5.398438 4.503906 0 9 1.800781 11.703125 5.398438l90.597656 114.101562zm0 0" fill="#faecd8"/><path d="m358.738281 299.800781 18.902344 23.398438-52.800781 35.402343c-2.699219 1.5-5.402344 2.398438-8.398438 2.398438-3.902344 0-7.800781-1.5-10.5-4.5l-19.5-19.199219-19.503906 19.199219c-2.695312 3-6.597656 4.5-10.496094 4.5v-180.699219c4.5 0 9 1.800781 11.699219 5.398438zm0 0" fill="#f4d7af"/><path d="m406.4375 0h-150c-8.398438 0-15 6.597656-15 15v105h165c8.402344 0 15-6.601562 15-15v-90c0-8.402344-6.597656-15-15-15zm0 0" fill="#e63950"/></svg>