<svg height="512pt" viewBox="0 0 512 512" width="512pt" xmlns="http://www.w3.org/2000/svg"><path d="m331 61v390l-30 31h-271l-30-31v-390l30-31h271zm0 0" fill="#575f64"/><path d="m331 61v390l-30 31h-135v-452h135zm0 0" fill="#32393f"/><path d="m30 91h271v330h-271zm0 0" fill="#64e1dc"/><path d="m166 91h135v330h-135zm0 0" fill="#00c8c8"/><path d="m331 46v15h-331v-15c0-24.902344 20.097656-46 45-46h241c24.902344 0 45 21.097656 45 46zm0 0" fill="#faecd8"/><path d="m331 46v15h-165v-61h120c24.902344 0 45 21.097656 45 46zm0 0" fill="#f4d7af"/><path d="m331 451v15c0 24.898438-20.097656 46-45 46h-241c-24.902344 0-45-21.101562-45-46v-15zm0 0" fill="#faecd8"/><path d="m166 451h165v15c0 24.898438-20.097656 46-45 46h-120zm0 0" fill="#f4d7af"/><path d="m136 151h-61c-8.289062 0-15-6.710938-15-15s6.710938-15 15-15h61c8.289062 0 15 6.710938 15 15s-6.710938 15-15 15zm0 0" fill="#faecd8"/><path d="m136 211h-61c-8.289062 0-15-6.710938-15-15s6.710938-15 15-15h61c8.289062 0 15 6.710938 15 15s-6.710938 15-15 15zm0 0" fill="#faecd8"/><path d="m346 61c-90.902344 0-165 74.097656-165 165 0 30.597656 8.402344 60.300781 24.300781 86.398438l-23.101562 57.902343c-2.101563 5.398438-1.199219 11.398438 2.402343 15.597657 3.898438 4.5 9.898438 6 15 4.5l71.097657-17.699219c23.101562 12 48.902343 18.300781 75.300781 18.300781 90.902344 0 166-74.101562 166-165 0-90.902344-75.097656-165-166-165zm0 0" fill="#ffda2d"/><path d="m390.699219 260.5c0 19.5-12.296875 35.699219-29.699219 42v13.5c0 8.398438-6.597656 15-15 15s-15-6.601562-15-15v-13.199219c-17.402344-6.300781-30.300781-22.800781-30.300781-42.300781 0-8.398438 6.898437-15 15-15 8.402343 0 15 6.601562 15 15 0 8.101562 6.898437 15 15 15h.300781c8.402344-.300781 14.699219-6.898438 14.699219-15 0-8.398438-6.296875-14.699219-14.699219-15h-.300781c-24.597657 0-45-20.402344-45-45 0-19.800781 12.902343-36.300781 30.300781-42.300781v-22.199219c0-8.402344 6.597656-15 15-15s15 6.597656 15 15v22.199219c17.402344 6.300781 29.699219 22.800781 29.699219 42.300781 0 8.101562-6.597657 15-15 15-8.101563 0-15-6.898438-15-15 0-8.398438-6.296875-14.699219-14.699219-15h-.300781c-8.101563 0-15 6.601562-15 15 0 8.101562 6.898437 15 15 15h.300781c24.902344.300781 44.699219 20.101562 44.699219 45zm0 0" fill="#fdbf00"/><path d="m512 226c0 90.898438-75.097656 165-166 165v-330c90.902344 0 166 74.097656 166 165zm0 0" fill="#fdbf00"/><g fill="#ff9100"><path d="m390.699219 260.5c0 19.5-12.296875 35.699219-29.699219 42v13.5c0 8.398438-6.597656 15-15 15v-55.5c8.402344-.300781 14.699219-6.898438 14.699219-15 0-8.398438-6.296875-14.699219-14.699219-15v-30c24.902344.300781 44.699219 20.101562 44.699219 45zm0 0"/><path d="m346 185.5v-64.5c8.402344 0 15 6.597656 15 15v22.199219c17.402344 6.300781 29.699219 22.800781 29.699219 42.300781 0 8.101562-6.597657 15-15 15-8.101563 0-15-6.898438-15-15 0-8.398438-6.296875-14.699219-14.699219-15zm0 0"/></g></svg>