<svg height="512pt" viewBox="0 0 512 512" width="512pt" xmlns="http://www.w3.org/2000/svg"><path d="m461.800781 229.300781-43.199219 65.097657c-4.800781 6.902343-14.402343 8.703124-21.300781 3.902343l-141.300781-101.101562-58.5-41.699219-112 111c-5.699219 6-15.296875 6-21 0-6-5.699219-6-15.300781 0-21l121-120c5.101562-5.402344 13.199219-6 19.199219-1.800781l51.300781 36.601562 146.101562 104.398438 34.800782-52.199219c4.496094-6.898438 13.796875-8.699219 20.695312-3.902344 6.902344 4.503906 8.703125 13.800782 4.203125 20.703125zm0 0" fill="#ff637b"/><path d="m461.800781 229.300781-43.199219 65.097657c-4.800781 6.902343-14.402343 8.703124-21.300781 3.902343l-141.300781-101.101562v-36.898438l146.101562 104.398438 34.800782-52.199219c4.496094-6.898438 13.796875-8.699219 20.695312-3.902344 6.902344 4.503906 8.703125 13.800782 4.203125 20.703125zm0 0" fill="#e63950"/><path d="m105 512c-8.289062 0-15-6.710938-15-15v-30c0-8.289062 6.710938-15 15-15s15 6.710938 15 15v30c0 8.289062-6.710938 15-15 15zm0 0" fill="#7c8388"/><path d="m196 512c-8.289062 0-15-6.710938-15-15v-30c0-8.289062 6.710938-15 15-15s15 6.710938 15 15v30c0 8.289062-6.710938 15-15 15zm0 0" fill="#7c8388"/><g fill="#575f64"><path d="m286 512c-8.289062 0-15-6.710938-15-15v-30c0-8.289062 6.710938-15 15-15s15 6.710938 15 15v30c0 8.289062-6.710938 15-15 15zm0 0"/><path d="m376 512c-8.289062 0-15-6.710938-15-15v-30c0-8.289062 6.710938-15 15-15s15 6.710938 15 15v30c0 8.289062-6.710938 15-15 15zm0 0"/><path d="m466 512c-8.289062 0-15-6.710938-15-15v-30c0-8.289062 6.710938-15 15-15s15 6.710938 15 15v30c0 8.289062-6.710938 15-15 15zm0 0"/></g><path d="m466 241c-24.8125 0-45-20.1875-45-45s20.1875-45 45-45 46 20.1875 46 45-21.1875 45-46 45zm0 0" fill="#e63950"/><path d="m512 497c0 8.398438-6.597656 15-15 15h-482c-8.402344 0-15-6.601562-15-15v-482c0-8.402344 6.597656-15 15-15s15 6.597656 15 15v467h467c8.402344 0 15 6.597656 15 15zm0 0" fill="#7c8388"/><path d="m512 497c0 8.398438-6.597656 15-15 15h-241v-30h241c8.402344 0 15 6.597656 15 15zm0 0" fill="#575f64"/><path d="m374.800781 78.601562-118.800781 218.796876-46.800781 85.800781c-4.796875 8.699219-16.800781 10.5-23.699219 3.300781l-49.5-49.199219-50.5 49.199219c-5.699219 6-15.300781 6-21 0-6-5.699219-6-15.300781 0-21l61-60c5.699219-6 15.296875-6 21 0l45.898438 45.601562 63.601562-116.703124 92.402344-170.199219c3.898437-7.203125 13.199218-9.898438 20.398437-6 7.199219 3.902343 9.898438 13.199219 6 20.402343zm0 0" fill="#64e1dc"/><path d="m374.800781 78.601562-118.800781 218.796876v-63l92.402344-170.199219c3.898437-7.203125 13.199218-9.898438 20.398437-6 7.199219 3.902343 9.898438 13.199219 6 20.402343zm0 0" fill="#00c8c8"/><path d="m376 90c-24.8125 0-45-20.1875-45-45s20.1875-45 45-45 45 20.1875 45 45-20.1875 45-45 45zm0 0" fill="#00c8c8"/></svg>